<svg width="518" height="458" viewBox="0 0 518 458" fill="none" xmlns="http://www.w3.org/2000/svg">
<g filter="url(#filter0_f_4_7)">
<path fill-rule="evenodd" clip-rule="evenodd" d="M259 25C129.715 25 25 118.599 25 234.16C25 326.713 91.9825 404.887 184.998 432.6C196.698 434.431 201.085 428.156 201.085 422.665C201.085 417.698 200.793 401.226 200.793 383.709C142 393.383 126.79 370.898 122.11 359.133C119.478 353.12 108.07 334.557 98.125 329.589C89.935 325.667 78.235 315.994 97.8325 315.732C116.26 315.471 129.423 330.896 133.81 337.171C154.87 368.807 188.508 359.917 201.963 354.427C204.01 340.832 210.153 331.681 216.88 326.452C164.815 321.223 110.41 303.183 110.41 223.179C110.41 200.433 119.478 181.609 134.395 166.967C132.055 161.738 123.865 140.299 136.735 111.54C136.735 111.54 156.333 106.049 201.085 132.979C219.805 128.273 239.695 125.92 259.585 125.92C279.475 125.92 299.365 128.273 318.085 132.979C362.838 105.788 382.435 111.54 382.435 111.54C395.305 140.299 387.115 161.738 384.775 166.967C399.693 181.609 408.76 200.171 408.76 223.179C408.76 303.444 354.063 321.223 301.998 326.452C310.48 332.988 317.793 345.538 317.793 365.146C317.793 393.122 317.5 415.606 317.5 422.665C317.5 428.156 321.888 434.692 333.588 432.6C426.018 404.887 493 326.452 493 234.16C493 118.599 388.285 25 259 25Z" fill="black" fill-opacity="0.3"/>
</g>
<defs>
<filter id="filter0_f_4_7" x="0" y="0" width="518" height="458" filterUnits="userSpaceOnUse" color-interpolation-filters="sRGB">
<feFlood flood-opacity="0" result="BackgroundImageFix"/>
<feBlend mode="normal" in="SourceGraphic" in2="BackgroundImageFix" result="shape"/>
<feGaussianBlur stdDeviation="12.5" result="effect1_foregroundBlur_4_7"/>
</filter>
</defs>
</svg>
